<mxfile host="app.diagrams.net" modified="2023-11-08T14:25:16.127Z" agent="Mozilla/5.0 (Windows NT 10.0; Win64; x64) AppleWebKit/537.36 (KHTML, like Gecko) Chrome/116.0.5845.837 YaBrowser/23.9.4.837 Yowser/2.5 Safari/537.36" etag="iMMCqo37QPyoiEGcOf27" version="22.0.8" type="device">
  <diagram name="Страница 1" id="qDaDormUYRjJo0ni8xrU">
    <mxGraphModel dx="641" dy="656" grid="1" gridSize="10" guides="1" tooltips="1" connect="1" arrows="1" fold="1" page="1" pageScale="1" pageWidth="827" pageHeight="1169" math="0" shadow="0">
      <root>
        <mxCell id="0" />
        <mxCell id="1" parent="0" />
        <mxCell id="ldx6cIzlUPnjnjzgcDRy-74" value="Пользователь" style="shape=ext;margin=3;double=1;whiteSpace=wrap;html=1;align=center;fontSize=16;" parent="1" vertex="1">
          <mxGeometry x="650" y="205" width="110" height="50" as="geometry" />
        </mxCell>
        <mxCell id="ldx6cIzlUPnjnjzgcDRy-75" value="Чат" style="shape=ext;margin=3;double=1;whiteSpace=wrap;html=1;align=center;fontSize=16;" parent="1" vertex="1">
          <mxGeometry x="284" y="485" width="120" height="60" as="geometry" />
        </mxCell>
        <mxCell id="ldx6cIzlUPnjnjzgcDRy-76" value="Сообщение" style="shape=ext;margin=3;double=1;whiteSpace=wrap;html=1;align=center;fontSize=16;" parent="1" vertex="1">
          <mxGeometry x="284" y="200" width="120" height="60" as="geometry" />
        </mxCell>
        <mxCell id="ldx6cIzlUPnjnjzgcDRy-82" value="id_польз." style="ellipse;whiteSpace=wrap;html=1;align=center;fontStyle=4;fontSize=16;" parent="1" vertex="1">
          <mxGeometry x="827" y="60" width="100" height="40" as="geometry" />
        </mxCell>
        <mxCell id="ldx6cIzlUPnjnjzgcDRy-83" value="имя" style="ellipse;whiteSpace=wrap;html=1;align=center;fontSize=16;" parent="1" vertex="1">
          <mxGeometry x="827" y="110" width="100" height="40" as="geometry" />
        </mxCell>
        <mxCell id="ldx6cIzlUPnjnjzgcDRy-85" value="фамилия" style="ellipse;whiteSpace=wrap;html=1;align=center;fontSize=16;" parent="1" vertex="1">
          <mxGeometry x="827" y="160" width="100" height="40" as="geometry" />
        </mxCell>
        <mxCell id="ldx6cIzlUPnjnjzgcDRy-86" value="телефон" style="ellipse;whiteSpace=wrap;html=1;align=center;fontSize=16;" parent="1" vertex="1">
          <mxGeometry x="827" y="210" width="100" height="40" as="geometry" />
        </mxCell>
        <mxCell id="ldx6cIzlUPnjnjzgcDRy-87" value="фото" style="ellipse;whiteSpace=wrap;html=1;align=center;fontSize=16;" parent="1" vertex="1">
          <mxGeometry x="827" y="260" width="100" height="40" as="geometry" />
        </mxCell>
        <mxCell id="ldx6cIzlUPnjnjzgcDRy-89" value="логин" style="ellipse;whiteSpace=wrap;html=1;align=center;fontSize=16;" parent="1" vertex="1">
          <mxGeometry x="827" y="310" width="100" height="40" as="geometry" />
        </mxCell>
        <mxCell id="ldx6cIzlUPnjnjzgcDRy-90" value="пароль" style="ellipse;whiteSpace=wrap;html=1;align=center;fontSize=16;" parent="1" vertex="1">
          <mxGeometry x="827" y="360" width="100" height="40" as="geometry" />
        </mxCell>
        <mxCell id="ldx6cIzlUPnjnjzgcDRy-91" value="" style="endArrow=none;html=1;rounded=0;fontSize=12;startSize=8;endSize=8;curved=1;exitX=1;exitY=0.5;exitDx=0;exitDy=0;entryX=0;entryY=0.5;entryDx=0;entryDy=0;" parent="1" source="ldx6cIzlUPnjnjzgcDRy-74" target="ldx6cIzlUPnjnjzgcDRy-90" edge="1">
          <mxGeometry width="50" height="50" relative="1" as="geometry">
            <mxPoint x="790" y="340" as="sourcePoint" />
            <mxPoint x="840" y="290" as="targetPoint" />
          </mxGeometry>
        </mxCell>
        <mxCell id="ldx6cIzlUPnjnjzgcDRy-92" value="" style="endArrow=none;html=1;rounded=0;fontSize=12;startSize=8;endSize=8;curved=1;exitX=0;exitY=0.5;exitDx=0;exitDy=0;entryX=1;entryY=0.5;entryDx=0;entryDy=0;" parent="1" source="ldx6cIzlUPnjnjzgcDRy-82" target="ldx6cIzlUPnjnjzgcDRy-74" edge="1">
          <mxGeometry width="50" height="50" relative="1" as="geometry">
            <mxPoint x="790" y="340" as="sourcePoint" />
            <mxPoint x="840" y="290" as="targetPoint" />
          </mxGeometry>
        </mxCell>
        <mxCell id="ldx6cIzlUPnjnjzgcDRy-93" value="" style="endArrow=none;html=1;rounded=0;fontSize=12;startSize=8;endSize=8;curved=1;exitX=1;exitY=0.5;exitDx=0;exitDy=0;entryX=0;entryY=0.5;entryDx=0;entryDy=0;" parent="1" source="ldx6cIzlUPnjnjzgcDRy-74" target="ldx6cIzlUPnjnjzgcDRy-89" edge="1">
          <mxGeometry width="50" height="50" relative="1" as="geometry">
            <mxPoint x="790" y="340" as="sourcePoint" />
            <mxPoint x="840" y="290" as="targetPoint" />
          </mxGeometry>
        </mxCell>
        <mxCell id="ldx6cIzlUPnjnjzgcDRy-94" value="" style="endArrow=none;html=1;rounded=0;fontSize=12;startSize=8;endSize=8;curved=1;exitX=1;exitY=0.5;exitDx=0;exitDy=0;entryX=0;entryY=0.5;entryDx=0;entryDy=0;" parent="1" source="ldx6cIzlUPnjnjzgcDRy-74" target="ldx6cIzlUPnjnjzgcDRy-87" edge="1">
          <mxGeometry width="50" height="50" relative="1" as="geometry">
            <mxPoint x="790" y="340" as="sourcePoint" />
            <mxPoint x="840" y="290" as="targetPoint" />
          </mxGeometry>
        </mxCell>
        <mxCell id="ldx6cIzlUPnjnjzgcDRy-95" value="" style="endArrow=none;html=1;rounded=0;fontSize=12;startSize=8;endSize=8;curved=1;exitX=1;exitY=0.5;exitDx=0;exitDy=0;entryX=0;entryY=0.5;entryDx=0;entryDy=0;" parent="1" source="ldx6cIzlUPnjnjzgcDRy-74" target="ldx6cIzlUPnjnjzgcDRy-86" edge="1">
          <mxGeometry width="50" height="50" relative="1" as="geometry">
            <mxPoint x="790" y="340" as="sourcePoint" />
            <mxPoint x="840" y="290" as="targetPoint" />
          </mxGeometry>
        </mxCell>
        <mxCell id="ldx6cIzlUPnjnjzgcDRy-96" value="" style="endArrow=none;html=1;rounded=0;fontSize=12;startSize=8;endSize=8;curved=1;exitX=1;exitY=0.5;exitDx=0;exitDy=0;entryX=0;entryY=0.5;entryDx=0;entryDy=0;" parent="1" source="ldx6cIzlUPnjnjzgcDRy-74" target="ldx6cIzlUPnjnjzgcDRy-85" edge="1">
          <mxGeometry width="50" height="50" relative="1" as="geometry">
            <mxPoint x="790" y="340" as="sourcePoint" />
            <mxPoint x="840" y="290" as="targetPoint" />
          </mxGeometry>
        </mxCell>
        <mxCell id="ldx6cIzlUPnjnjzgcDRy-97" value="" style="endArrow=none;html=1;rounded=0;fontSize=12;startSize=8;endSize=8;curved=1;entryX=0;entryY=0.5;entryDx=0;entryDy=0;exitX=1;exitY=0.5;exitDx=0;exitDy=0;" parent="1" source="ldx6cIzlUPnjnjzgcDRy-74" target="ldx6cIzlUPnjnjzgcDRy-83" edge="1">
          <mxGeometry width="50" height="50" relative="1" as="geometry">
            <mxPoint x="790" y="340" as="sourcePoint" />
            <mxPoint x="840" y="290" as="targetPoint" />
          </mxGeometry>
        </mxCell>
        <mxCell id="ldx6cIzlUPnjnjzgcDRy-98" value="id_чата" style="ellipse;whiteSpace=wrap;html=1;align=center;fontStyle=4;fontSize=16;" parent="1" vertex="1">
          <mxGeometry x="124" y="445" width="100" height="40" as="geometry" />
        </mxCell>
        <mxCell id="ldx6cIzlUPnjnjzgcDRy-99" value="название" style="ellipse;whiteSpace=wrap;html=1;align=center;fontSize=16;" parent="1" vertex="1">
          <mxGeometry x="124" y="495" width="100" height="40" as="geometry" />
        </mxCell>
        <mxCell id="ldx6cIzlUPnjnjzgcDRy-100" value="дата_создан." style="ellipse;whiteSpace=wrap;html=1;align=center;fontSize=16;" parent="1" vertex="1">
          <mxGeometry x="124" y="545" width="100" height="40" as="geometry" />
        </mxCell>
        <mxCell id="ldx6cIzlUPnjnjzgcDRy-101" value="" style="endArrow=none;html=1;rounded=0;fontSize=12;startSize=8;endSize=8;curved=1;exitX=1;exitY=0.5;exitDx=0;exitDy=0;entryX=0;entryY=0.5;entryDx=0;entryDy=0;" parent="1" source="ldx6cIzlUPnjnjzgcDRy-98" target="ldx6cIzlUPnjnjzgcDRy-75" edge="1">
          <mxGeometry width="50" height="50" relative="1" as="geometry">
            <mxPoint x="274" y="505" as="sourcePoint" />
            <mxPoint x="324" y="455" as="targetPoint" />
          </mxGeometry>
        </mxCell>
        <mxCell id="ldx6cIzlUPnjnjzgcDRy-102" value="" style="endArrow=none;html=1;rounded=0;fontSize=12;startSize=8;endSize=8;curved=1;exitX=1;exitY=0.5;exitDx=0;exitDy=0;entryX=0;entryY=0.5;entryDx=0;entryDy=0;" parent="1" source="ldx6cIzlUPnjnjzgcDRy-99" target="ldx6cIzlUPnjnjzgcDRy-75" edge="1">
          <mxGeometry width="50" height="50" relative="1" as="geometry">
            <mxPoint x="274" y="505" as="sourcePoint" />
            <mxPoint x="294" y="515" as="targetPoint" />
          </mxGeometry>
        </mxCell>
        <mxCell id="ldx6cIzlUPnjnjzgcDRy-103" value="" style="endArrow=none;html=1;rounded=0;fontSize=12;startSize=8;endSize=8;curved=1;exitX=1;exitY=0.5;exitDx=0;exitDy=0;entryX=0;entryY=0.5;entryDx=0;entryDy=0;" parent="1" source="ldx6cIzlUPnjnjzgcDRy-100" target="ldx6cIzlUPnjnjzgcDRy-75" edge="1">
          <mxGeometry width="50" height="50" relative="1" as="geometry">
            <mxPoint x="274" y="505" as="sourcePoint" />
            <mxPoint x="324" y="455" as="targetPoint" />
          </mxGeometry>
        </mxCell>
        <mxCell id="ldx6cIzlUPnjnjzgcDRy-104" value="id_сообщ." style="ellipse;whiteSpace=wrap;html=1;align=center;fontStyle=4;fontSize=16;" parent="1" vertex="1">
          <mxGeometry x="124" y="85" width="100" height="40" as="geometry" />
        </mxCell>
        <mxCell id="ldx6cIzlUPnjnjzgcDRy-105" value="контекст" style="ellipse;whiteSpace=wrap;html=1;align=center;fontSize=16;" parent="1" vertex="1">
          <mxGeometry x="124" y="135" width="100" height="40" as="geometry" />
        </mxCell>
        <mxCell id="ldx6cIzlUPnjnjzgcDRy-106" value="дата_создан." style="ellipse;whiteSpace=wrap;html=1;align=center;fontSize=16;" parent="1" vertex="1">
          <mxGeometry x="124" y="185" width="100" height="40" as="geometry" />
        </mxCell>
        <mxCell id="ldx6cIzlUPnjnjzgcDRy-107" value="статус" style="ellipse;whiteSpace=wrap;html=1;align=center;fontSize=16;" parent="1" vertex="1">
          <mxGeometry x="124" y="235" width="100" height="40" as="geometry" />
        </mxCell>
        <mxCell id="ldx6cIzlUPnjnjzgcDRy-108" value="id_польз." style="ellipse;whiteSpace=wrap;html=1;align=center;fontSize=16;" parent="1" vertex="1">
          <mxGeometry x="124" y="285" width="100" height="40" as="geometry" />
        </mxCell>
        <mxCell id="ldx6cIzlUPnjnjzgcDRy-109" value="" style="endArrow=none;html=1;rounded=0;fontSize=12;startSize=8;endSize=8;curved=1;exitX=1;exitY=0.5;exitDx=0;exitDy=0;entryX=0;entryY=0.5;entryDx=0;entryDy=0;" parent="1" source="ldx6cIzlUPnjnjzgcDRy-104" target="ldx6cIzlUPnjnjzgcDRy-76" edge="1">
          <mxGeometry width="50" height="50" relative="1" as="geometry">
            <mxPoint x="310" y="300" as="sourcePoint" />
            <mxPoint x="360" y="250" as="targetPoint" />
          </mxGeometry>
        </mxCell>
        <mxCell id="ldx6cIzlUPnjnjzgcDRy-110" value="" style="endArrow=none;html=1;rounded=0;fontSize=12;startSize=8;endSize=8;curved=1;exitX=1;exitY=0.5;exitDx=0;exitDy=0;entryX=0;entryY=0.5;entryDx=0;entryDy=0;" parent="1" source="ldx6cIzlUPnjnjzgcDRy-105" target="ldx6cIzlUPnjnjzgcDRy-76" edge="1">
          <mxGeometry width="50" height="50" relative="1" as="geometry">
            <mxPoint x="310" y="300" as="sourcePoint" />
            <mxPoint x="360" y="250" as="targetPoint" />
          </mxGeometry>
        </mxCell>
        <mxCell id="ldx6cIzlUPnjnjzgcDRy-111" value="" style="endArrow=none;html=1;rounded=0;fontSize=12;startSize=8;endSize=8;curved=1;exitX=1;exitY=0.5;exitDx=0;exitDy=0;entryX=0;entryY=0.5;entryDx=0;entryDy=0;" parent="1" source="ldx6cIzlUPnjnjzgcDRy-106" target="ldx6cIzlUPnjnjzgcDRy-76" edge="1">
          <mxGeometry width="50" height="50" relative="1" as="geometry">
            <mxPoint x="310" y="300" as="sourcePoint" />
            <mxPoint x="360" y="250" as="targetPoint" />
          </mxGeometry>
        </mxCell>
        <mxCell id="ldx6cIzlUPnjnjzgcDRy-112" value="" style="endArrow=none;html=1;rounded=0;fontSize=12;startSize=8;endSize=8;curved=1;exitX=1;exitY=0.5;exitDx=0;exitDy=0;entryX=0;entryY=0.5;entryDx=0;entryDy=0;" parent="1" source="ldx6cIzlUPnjnjzgcDRy-107" target="ldx6cIzlUPnjnjzgcDRy-76" edge="1">
          <mxGeometry width="50" height="50" relative="1" as="geometry">
            <mxPoint x="310" y="300" as="sourcePoint" />
            <mxPoint x="360" y="250" as="targetPoint" />
          </mxGeometry>
        </mxCell>
        <mxCell id="ldx6cIzlUPnjnjzgcDRy-113" value="" style="endArrow=none;html=1;rounded=0;fontSize=12;startSize=8;endSize=8;curved=1;exitX=1;exitY=0.5;exitDx=0;exitDy=0;entryX=0;entryY=0.5;entryDx=0;entryDy=0;" parent="1" source="ldx6cIzlUPnjnjzgcDRy-108" target="ldx6cIzlUPnjnjzgcDRy-76" edge="1">
          <mxGeometry width="50" height="50" relative="1" as="geometry">
            <mxPoint x="310" y="300" as="sourcePoint" />
            <mxPoint x="360" y="250" as="targetPoint" />
          </mxGeometry>
        </mxCell>
        <mxCell id="ldx6cIzlUPnjnjzgcDRy-114" value="создает" style="shape=rhombus;perimeter=rhombusPerimeter;whiteSpace=wrap;html=1;align=center;fontSize=16;" parent="1" vertex="1">
          <mxGeometry x="460" y="200" width="120" height="60" as="geometry" />
        </mxCell>
        <mxCell id="ldx6cIzlUPnjnjzgcDRy-115" value="" style="endArrow=none;html=1;rounded=0;fontSize=12;startSize=8;endSize=8;curved=1;exitX=1;exitY=0.5;exitDx=0;exitDy=0;entryX=0;entryY=0.5;entryDx=0;entryDy=0;" parent="1" source="ldx6cIzlUPnjnjzgcDRy-76" target="ldx6cIzlUPnjnjzgcDRy-114" edge="1">
          <mxGeometry width="50" height="50" relative="1" as="geometry">
            <mxPoint x="550" y="340" as="sourcePoint" />
            <mxPoint x="600" y="290" as="targetPoint" />
          </mxGeometry>
        </mxCell>
        <mxCell id="ldx6cIzlUPnjnjzgcDRy-116" value="" style="endArrow=none;html=1;rounded=0;fontSize=12;startSize=8;endSize=8;curved=1;entryX=1;entryY=0.5;entryDx=0;entryDy=0;exitX=0;exitY=0.5;exitDx=0;exitDy=0;" parent="1" source="ldx6cIzlUPnjnjzgcDRy-74" target="ldx6cIzlUPnjnjzgcDRy-114" edge="1">
          <mxGeometry width="50" height="50" relative="1" as="geometry">
            <mxPoint x="550" y="340" as="sourcePoint" />
            <mxPoint x="600" y="290" as="targetPoint" />
          </mxGeometry>
        </mxCell>
        <mxCell id="ldx6cIzlUPnjnjzgcDRy-117" value="хранит" style="shape=rhombus;perimeter=rhombusPerimeter;whiteSpace=wrap;html=1;align=center;fontSize=16;" parent="1" vertex="1">
          <mxGeometry x="284" y="340" width="120" height="60" as="geometry" />
        </mxCell>
        <mxCell id="ldx6cIzlUPnjnjzgcDRy-118" value="" style="endArrow=none;html=1;rounded=0;fontSize=12;startSize=8;endSize=8;curved=1;entryX=0.5;entryY=1;entryDx=0;entryDy=0;exitX=0.5;exitY=0;exitDx=0;exitDy=0;" parent="1" source="ldx6cIzlUPnjnjzgcDRy-75" target="ldx6cIzlUPnjnjzgcDRy-117" edge="1">
          <mxGeometry width="50" height="50" relative="1" as="geometry">
            <mxPoint x="300" y="440" as="sourcePoint" />
            <mxPoint x="380" y="430" as="targetPoint" />
          </mxGeometry>
        </mxCell>
        <mxCell id="ldx6cIzlUPnjnjzgcDRy-119" value="" style="endArrow=none;html=1;rounded=0;fontSize=12;startSize=8;endSize=8;curved=1;exitX=0.5;exitY=1;exitDx=0;exitDy=0;entryX=0.5;entryY=0;entryDx=0;entryDy=0;" parent="1" source="ldx6cIzlUPnjnjzgcDRy-76" target="ldx6cIzlUPnjnjzgcDRy-117" edge="1">
          <mxGeometry width="50" height="50" relative="1" as="geometry">
            <mxPoint x="300" y="440" as="sourcePoint" />
            <mxPoint x="344" y="340" as="targetPoint" />
          </mxGeometry>
        </mxCell>
        <mxCell id="ldx6cIzlUPnjnjzgcDRy-120" value="просматривает" style="shape=rhombus;perimeter=rhombusPerimeter;whiteSpace=wrap;html=1;align=center;fontSize=16;" parent="1" vertex="1">
          <mxGeometry x="460" y="340" width="120" height="60" as="geometry" />
        </mxCell>
        <mxCell id="ldx6cIzlUPnjnjzgcDRy-121" value="" style="endArrow=none;html=1;rounded=0;fontSize=12;startSize=8;endSize=8;curved=1;exitX=1;exitY=0;exitDx=0;exitDy=0;entryX=0.5;entryY=1;entryDx=0;entryDy=0;" parent="1" source="ldx6cIzlUPnjnjzgcDRy-75" target="ldx6cIzlUPnjnjzgcDRy-120" edge="1">
          <mxGeometry width="50" height="50" relative="1" as="geometry">
            <mxPoint x="470" y="485" as="sourcePoint" />
            <mxPoint x="520" y="435" as="targetPoint" />
          </mxGeometry>
        </mxCell>
        <mxCell id="ldx6cIzlUPnjnjzgcDRy-122" value="" style="endArrow=none;html=1;rounded=0;fontSize=12;startSize=8;endSize=8;curved=1;exitX=0.5;exitY=0;exitDx=0;exitDy=0;entryX=0;entryY=1;entryDx=0;entryDy=0;" parent="1" source="ldx6cIzlUPnjnjzgcDRy-120" target="ldx6cIzlUPnjnjzgcDRy-74" edge="1">
          <mxGeometry width="50" height="50" relative="1" as="geometry">
            <mxPoint x="530" y="330" as="sourcePoint" />
            <mxPoint x="580" y="280" as="targetPoint" />
          </mxGeometry>
        </mxCell>
        <mxCell id="ldx6cIzlUPnjnjzgcDRy-123" value="М" style="text;html=1;align=center;verticalAlign=middle;resizable=0;points=[];autosize=1;strokeColor=none;fillColor=none;fontSize=16;" parent="1" vertex="1">
          <mxGeometry x="410" y="188" width="40" height="30" as="geometry" />
        </mxCell>
        <mxCell id="ldx6cIzlUPnjnjzgcDRy-124" value="1" style="text;html=1;align=center;verticalAlign=middle;resizable=0;points=[];autosize=1;strokeColor=none;fillColor=none;fontSize=16;" parent="1" vertex="1">
          <mxGeometry x="615" y="188" width="30" height="30" as="geometry" />
        </mxCell>
        <mxCell id="ldx6cIzlUPnjnjzgcDRy-125" value="М" style="text;html=1;align=center;verticalAlign=middle;resizable=0;points=[];autosize=1;strokeColor=none;fillColor=none;fontSize=16;" parent="1" vertex="1">
          <mxGeometry x="305" y="258" width="40" height="30" as="geometry" />
        </mxCell>
        <mxCell id="ldx6cIzlUPnjnjzgcDRy-126" value="1" style="text;html=1;align=center;verticalAlign=middle;resizable=0;points=[];autosize=1;strokeColor=none;fillColor=none;fontSize=16;" parent="1" vertex="1">
          <mxGeometry x="315" y="455" width="30" height="30" as="geometry" />
        </mxCell>
        <mxCell id="ldx6cIzlUPnjnjzgcDRy-127" value="М" style="text;html=1;align=center;verticalAlign=middle;resizable=0;points=[];autosize=1;strokeColor=none;fillColor=none;fontSize=16;" parent="1" vertex="1">
          <mxGeometry x="394" y="480" width="40" height="30" as="geometry" />
        </mxCell>
        <mxCell id="ldx6cIzlUPnjnjzgcDRy-128" value="М" style="text;html=1;align=center;verticalAlign=middle;resizable=0;points=[];autosize=1;strokeColor=none;fillColor=none;fontSize=16;" parent="1" vertex="1">
          <mxGeometry x="630" y="258" width="40" height="30" as="geometry" />
        </mxCell>
        <mxCell id="4Xqqwx3Iyeo7TqbLG3hY-2" value="" style="endArrow=none;html=1;rounded=0;exitX=0.074;exitY=0.561;exitDx=0;exitDy=0;exitPerimeter=0;entryX=0.564;entryY=0.073;entryDx=0;entryDy=0;entryPerimeter=0;" parent="1" source="ldx6cIzlUPnjnjzgcDRy-117" target="ldx6cIzlUPnjnjzgcDRy-117" edge="1">
          <mxGeometry width="50" height="50" relative="1" as="geometry">
            <mxPoint x="389" y="340" as="sourcePoint" />
            <mxPoint x="439" y="290" as="targetPoint" />
            <Array as="points">
              <mxPoint x="320" y="360" />
            </Array>
          </mxGeometry>
        </mxCell>
        <mxCell id="4Xqqwx3Iyeo7TqbLG3hY-3" value="" style="endArrow=none;html=1;rounded=0;exitX=0.074;exitY=0.561;exitDx=0;exitDy=0;exitPerimeter=0;entryX=0.564;entryY=0.073;entryDx=0;entryDy=0;entryPerimeter=0;" parent="1" edge="1">
          <mxGeometry width="50" height="50" relative="1" as="geometry">
            <mxPoint x="335" y="395" as="sourcePoint" />
            <mxPoint x="394" y="365" as="targetPoint" />
          </mxGeometry>
        </mxCell>
        <mxCell id="4Xqqwx3Iyeo7TqbLG3hY-4" value="" style="endArrow=none;html=1;rounded=0;exitX=0.069;exitY=0.554;exitDx=0;exitDy=0;exitPerimeter=0;entryX=0.55;entryY=0.059;entryDx=0;entryDy=0;entryPerimeter=0;" parent="1" source="ldx6cIzlUPnjnjzgcDRy-114" target="ldx6cIzlUPnjnjzgcDRy-114" edge="1">
          <mxGeometry width="50" height="50" relative="1" as="geometry">
            <mxPoint x="470" y="230" as="sourcePoint" />
            <mxPoint x="529" y="200" as="targetPoint" />
          </mxGeometry>
        </mxCell>
        <mxCell id="4Xqqwx3Iyeo7TqbLG3hY-5" value="" style="endArrow=none;html=1;rounded=0;exitX=0.432;exitY=0.927;exitDx=0;exitDy=0;exitPerimeter=0;entryX=0.931;entryY=0.434;entryDx=0;entryDy=0;entryPerimeter=0;" parent="1" source="ldx6cIzlUPnjnjzgcDRy-114" target="ldx6cIzlUPnjnjzgcDRy-114" edge="1">
          <mxGeometry width="50" height="50" relative="1" as="geometry">
            <mxPoint x="510" y="258" as="sourcePoint" />
            <mxPoint x="569" y="228" as="targetPoint" />
          </mxGeometry>
        </mxCell>
        <mxCell id="4Xqqwx3Iyeo7TqbLG3hY-6" value="&lt;font style=&quot;font-size: 14px;&quot;&gt;Сообщение&lt;/font&gt;" style="rounded=0;whiteSpace=wrap;html=1;" parent="1" vertex="1">
          <mxGeometry x="284" y="200" width="120" height="60" as="geometry" />
        </mxCell>
        <mxCell id="4Xqqwx3Iyeo7TqbLG3hY-7" value="&lt;font style=&quot;font-size: 14px;&quot;&gt;Чат&lt;/font&gt;" style="rounded=0;whiteSpace=wrap;html=1;" parent="1" vertex="1">
          <mxGeometry x="284" y="485" width="120" height="60" as="geometry" />
        </mxCell>
        <mxCell id="4Xqqwx3Iyeo7TqbLG3hY-8" value="&lt;font style=&quot;font-size: 14px;&quot;&gt;Пользователь&lt;/font&gt;" style="rounded=1;whiteSpace=wrap;html=1;" parent="1" vertex="1">
          <mxGeometry x="645" y="200" width="120" height="60" as="geometry" />
        </mxCell>
        <mxCell id="RgZt31p0dHlxMjXqEhTR-1" value="id_чата" style="ellipse;whiteSpace=wrap;html=1;align=center;fontSize=16;" vertex="1" parent="1">
          <mxGeometry x="124" y="335" width="100" height="40" as="geometry" />
        </mxCell>
        <mxCell id="RgZt31p0dHlxMjXqEhTR-2" value="" style="endArrow=none;html=1;rounded=0;fontSize=12;startSize=8;endSize=8;curved=1;exitX=1;exitY=0.5;exitDx=0;exitDy=0;entryX=0;entryY=0.5;entryDx=0;entryDy=0;" edge="1" parent="1" source="RgZt31p0dHlxMjXqEhTR-1" target="4Xqqwx3Iyeo7TqbLG3hY-6">
          <mxGeometry width="50" height="50" relative="1" as="geometry">
            <mxPoint x="310" y="350" as="sourcePoint" />
            <mxPoint x="284" y="280" as="targetPoint" />
          </mxGeometry>
        </mxCell>
      </root>
    </mxGraphModel>
  </diagram>
</mxfile>
